<svg xmlns="http://www.w3.org/2000/svg" viewBox="0 0 1024 1024" role="img" aria-label="Emoji Learning Flashcard Game for Kids app icon">
  <defs>
    <linearGradient id="bg" x1="0" x2="1" y1="0" y2="1">
      <stop offset="0%" stop-color="#20b8bc" />
      <stop offset="100%" stop-color="#13a8af" />
    </linearGradient>
    <linearGradient id="card" x1="0" x2="1" y1="0" y2="1">
      <stop offset="0%" stop-color="#fff9e3" />
      <stop offset="100%" stop-color="#ffe7a8" />
    </linearGradient>
    <linearGradient id="stripeWarm" x1="0" x2="1" y1="0" y2="1">
      <stop offset="0%" stop-color="#ffd650" />
      <stop offset="100%" stop-color="#ffbf2f" />
    </linearGradient>
    <linearGradient id="stripeCool" x1="0" x2="1" y1="0" y2="1">
      <stop offset="0%" stop-color="#5dd7d7" />
      <stop offset="100%" stop-color="#3dbec4" />
    </linearGradient>
  </defs>

  <rect width="1024" height="1024" fill="url(#bg)" />
  <rect x="88" y="88" width="848" height="848" rx="220" fill="#e7fbfb" />
  <rect x="136" y="136" width="752" height="752" rx="190" fill="#f6feff" />

  <g>
    <rect x="274" y="266" width="290" height="420" rx="52" fill="#d5f4f2" transform="rotate(-12 419 476)" />
    <rect x="460" y="266" width="290" height="420" rx="52" fill="#fff2bf" transform="rotate(12 605 476)" />
    <rect x="332" y="198" width="360" height="548" rx="64" fill="url(#card)" stroke="#ffffff" stroke-width="18" />
  </g>

  <g>
    <rect x="384" y="270" width="256" height="152" rx="36" fill="#ffffff" />
    <rect x="414" y="302" width="90" height="88" rx="26" fill="url(#stripeWarm)" />
    <rect x="520" y="302" width="90" height="88" rx="26" fill="url(#stripeCool)" />
    <circle cx="458" cy="346" r="18" fill="#ffffff" />
    <circle cx="564" cy="346" r="18" fill="#ffffff" />
  </g>

  <g>
    <rect x="390" y="478" width="244" height="30" rx="15" fill="#1b4b6d" />
    <rect x="390" y="532" width="196" height="30" rx="15" fill="#2b688b" />
    <rect x="390" y="586" width="224" height="30" rx="15" fill="#4f87a3" />
  </g>

  <rect x="332" y="680" width="360" height="66" rx="33" fill="#ffd146" />
</svg>
