<svg xmlns="http://www.w3.org/2000/svg" viewBox="0 0 1024 1024" role="img" aria-label="Emoji Flashcards Lite app icon">
  <defs>
    <linearGradient id="bg" x1="0" x2="1" y1="0" y2="1">
      <stop offset="0%" stop-color="#ff8f5a" />
      <stop offset="55%" stop-color="#ffb347" />
      <stop offset="100%" stop-color="#ffd85c" />
    </linearGradient>
    <radialGradient id="glow" cx="0.35" cy="0.2" r="0.95">
      <stop offset="0%" stop-color="#fff6d9" stop-opacity="0.95" />
      <stop offset="55%" stop-color="#fff1cb" stop-opacity="0.25" />
      <stop offset="100%" stop-color="#fff1cb" stop-opacity="0" />
    </radialGradient>
    <linearGradient id="cardFace" x1="0" x2="0" y1="0" y2="1">
      <stop offset="0%" stop-color="#fffef7" />
      <stop offset="100%" stop-color="#fff5d8" />
    </linearGradient>
    <linearGradient id="cardEdge" x1="0" x2="1" y1="0" y2="1">
      <stop offset="0%" stop-color="#2cc7c9" />
      <stop offset="100%" stop-color="#1ca4b7" />
    </linearGradient>
    <filter id="shadow" x="-20%" y="-20%" width="140%" height="140%">
      <feDropShadow dx="0" dy="28" stdDeviation="28" flood-color="#b45722" flood-opacity="0.22" />
    </filter>
  </defs>

  <rect width="1024" height="1024" rx="228" fill="url(#bg)" />
  <rect width="1024" height="1024" rx="228" fill="url(#glow)" />

  <g opacity="0.25">
    <circle cx="170" cy="194" r="24" fill="#fff4d1" />
    <circle cx="840" cy="214" r="16" fill="#fff4d1" />
    <circle cx="874" cy="288" r="10" fill="#fff4d1" />
    <circle cx="174" cy="802" r="16" fill="#fff4d1" />
    <circle cx="824" cy="780" r="24" fill="#fff4d1" />
  </g>

  <g transform="translate(158 146)" filter="url(#shadow)">
    <rect x="28" y="124" width="312" height="430" rx="54" fill="#8ce6e2" opacity="0.62" transform="rotate(-14 184 339)" />
    <rect x="396" y="140" width="286" height="404" rx="50" fill="#fff3c2" opacity="0.75" transform="rotate(14 539 342)" />

    <g transform="rotate(-4 352 368)">
      <rect x="180" y="38" width="344" height="612" rx="86" fill="url(#cardEdge)" />
      <rect x="208" y="66" width="288" height="556" rx="68" fill="url(#cardFace)" />

      <rect x="256" y="110" width="192" height="106" rx="34" fill="#ffe36a" />
      <path d="M352 122 370 160 412 166 381 194 389 236 352 214 315 236 323 194 292 166 334 160Z" fill="#1f8fb1" />

      <circle cx="304" cy="300" r="22" fill="#1f4c72" />
      <path d="M400 276c24 14 24 58 0 72" fill="none" stroke="#1f4c72" stroke-linecap="round" stroke-width="16" />
      <path d="M296 390c28 36 104 36 132 0" fill="none" stroke="#1f4c72" stroke-linecap="round" stroke-width="18" />

      <rect x="254" y="462" width="196" height="34" rx="17" fill="#2f6c8d" opacity="0.9" />
      <rect x="254" y="514" width="154" height="28" rx="14" fill="#56a4ba" opacity="0.95" />
      <rect x="254" y="560" width="182" height="28" rx="14" fill="#ffbf4f" />
    </g>
  </g>

  <g transform="translate(780 238)">
    <circle r="56" fill="#1db8c0" />
    <path d="M0-30 9-8 33-8 14 7 21 30 0 17-21 30-14 7-33-8-9-8Z" fill="#fff7dd" />
  </g>
</svg>
